<svg width="108" height="45" viewBox="0 0 108 45" fill="none" xmlns="http://www.w3.org/2000/svg">
<g clip-path="url(#clip0_372_1784)">
<path d="M56.0767 17.1516L51.3564 0H54.1886L57.5872 14.0164L61.5522 0H64.5732L68.3495 14.0164L71.7481 0H74.769L70.0487 17.1516H66.839L63.0627 3.87295L59.0977 17.1516H55.8879H56.0767Z" fill="#03101D"/>
<path d="M80.8113 17.3361C79.4897 17.3361 78.5456 17.1516 77.6015 16.5984C76.6575 16.0451 75.9022 15.3074 75.3358 14.3852C74.7694 13.4631 74.5806 12.3566 74.5806 11.0656C74.5806 9.77459 74.7694 8.66803 75.3358 7.7459C75.9022 6.82377 76.6575 6.08607 77.6015 5.53279C78.5456 4.97951 79.6785 4.79508 80.8113 4.79508C81.9442 4.79508 83.0771 4.97951 84.0211 5.53279C84.9652 6.08607 85.7204 6.82377 86.098 7.56148C86.6645 8.48361 86.8533 9.40574 86.8533 10.5123V11.0656C86.8533 11.25 86.8533 11.4344 86.8533 11.6189H77.2239C77.2239 12.7254 77.6015 13.6475 78.3568 14.2008C79.112 14.7541 79.8673 15.123 80.8113 15.123C81.7554 15.123 82.133 15.123 82.6994 14.5697C83.2659 14.2008 83.6435 13.832 83.8323 13.2787H86.6645C86.2869 14.3852 85.7204 15.3074 84.5876 16.2295C83.6435 16.9672 82.3218 17.3361 80.8113 17.3361ZM80.8113 6.82377C79.8673 6.82377 79.112 7.0082 78.5456 7.56148C77.7904 8.11475 77.4127 8.85246 77.4127 9.77459H84.2099C84.2099 8.85246 83.8323 8.11475 83.2659 7.56148C82.6994 7.0082 81.9442 6.82377 81.0001 6.82377H80.8113Z" fill="#03101D"/>
<path d="M14.9161 45C11.7063 45 9.06294 44.4467 6.7972 43.1557C4.53147 41.8648 2.83217 40.2049 1.6993 37.9918C0.566433 35.7787 0 33.1967 0 30.4303C0 27.6639 0.566433 24.8975 1.6993 22.5C2.83217 20.2869 4.53147 18.4426 6.7972 17.1516C8.87412 15.8607 11.5175 15.3074 14.5385 15.3074C17.5594 15.3074 20.7692 16.0451 23.035 17.7049C25.3007 19.3648 26.8112 21.5779 27.3776 24.3443H22.0909C21.7133 22.8689 20.7692 21.5779 19.4476 20.8402C18.1259 20.1025 16.4266 19.5492 14.5385 19.5492C11.5175 19.5492 9.06294 20.4713 7.36364 22.5C5.66434 24.5287 4.72028 27.1107 4.72028 30.6148C4.72028 34.1189 5.66434 36.5164 7.36364 38.3607C9.06294 40.2049 11.7063 41.1271 14.7273 41.1271C17.7483 41.1271 19.4476 40.3893 20.958 38.9139C22.4685 37.4385 23.2238 35.2254 23.4126 32.6434H14.7273V29.1393H27.9441V30.9836C27.9441 34.1189 27.3776 36.7008 26.2448 38.7295C25.1119 40.7582 23.6014 42.418 21.5245 43.5246C19.4475 44.6312 17.1818 45.1844 14.7273 45.1844L14.9161 45Z" fill="#03101D"/>
<path d="M31.5312 44.4467V14.9385H36.0627V44.4467H31.5312Z" fill="#03101D"/>
<path d="M47.3916 45C45.6923 45 44.3707 44.6311 43.2378 44.0779C42.1049 43.5246 41.1609 42.7869 40.5944 41.8648C40.028 40.9426 39.6504 39.8361 39.6504 38.9139C39.6504 36.7008 40.4056 35.041 42.1049 33.9344C43.8042 32.8279 45.8812 32.0902 48.3357 32.0902C50.7902 32.0902 50.6014 32.0902 51.5455 32.2746C52.4895 32.2746 53.2448 32.6434 53.8112 32.8279V31.9057C53.8112 30.2459 53.4336 29.1393 52.4895 28.4016C51.5455 27.6639 50.4126 27.2951 48.9021 27.2951C47.3916 27.2951 46.8252 27.4795 46.07 28.0328C45.3147 28.4016 44.7483 29.3238 44.5595 30.2459H40.028C40.028 28.7705 40.7833 27.6639 41.5385 26.5574C42.2937 25.6352 43.4266 24.8975 44.7483 24.3443C46.07 23.791 47.3916 23.6066 48.9021 23.6066C51.9231 23.6066 54.1889 24.3443 55.8882 25.8197C57.5875 27.2951 58.3427 29.3238 58.3427 31.9057V37.2541C58.3427 38.3607 58.3427 39.0984 58.3427 39.4672C58.3427 40.0205 58.7203 40.2049 58.9091 40.3893C59.2868 40.3893 59.6644 40.3893 60.042 40.3893H60.2308V44.2623H59.2868C57.7763 44.2623 56.6434 44.0779 55.6993 43.709C54.7553 43.3402 54.1888 42.418 53.8112 41.3115C53.056 42.2336 52.3007 43.1557 51.1679 43.8934C50.035 44.6311 48.7133 45 47.014 45H47.3916ZM48.1469 41.4959C49.6574 41.4959 50.9791 40.9426 51.9231 39.8361C52.8672 38.7295 53.4336 37.4385 53.6224 35.9631C53.056 35.9631 52.3007 35.5943 51.3567 35.4098C50.4126 35.2254 49.6574 35.2254 48.7133 35.2254C47.2028 35.2254 46.07 35.5943 45.3147 36.1475C44.5595 36.7008 44.1819 37.6229 44.1819 38.5451C44.1819 39.4672 44.5595 40.0205 45.1259 40.5738C45.8812 41.127 46.8252 41.3115 47.9581 41.3115L48.1469 41.4959Z" fill="#03101D"/>
<path d="M63.8184 44.4467V24.1598H68.3498V26.7418C69.1051 25.8197 69.8603 24.8975 70.9932 24.3443C72.126 23.791 73.2589 23.4221 74.7694 23.4221C77.9792 23.4221 80.2449 24.7131 81.5666 27.1107C82.3219 26.0041 83.2659 25.082 84.5876 24.3443C85.9093 23.6066 87.2309 23.4221 88.7414 23.4221C91.3848 23.4221 93.4617 24.1598 94.7834 25.8197C96.2939 27.2951 97.0491 29.6926 97.0491 32.6434V44.2623H92.5177V33.0123C92.5177 29.1393 91.0072 27.2951 87.9862 27.2951C84.9652 27.2951 85.154 27.8484 84.21 28.9549C83.2659 30.0615 82.6995 31.7213 82.6995 33.75V44.2623H78.168V33.0123C78.168 29.1393 76.6575 27.2951 73.6365 27.2951C70.6156 27.2951 70.8044 27.8484 69.8603 28.9549C68.9163 30.0615 68.3498 31.7213 68.3498 33.75V44.2623H63.8184V44.4467Z" fill="#03101D"/>
<path d="M102.147 44.4467V38.9139H108.189V44.4467H102.147ZM103.091 36.332L102.525 15.8607H107.434L106.867 36.332H102.902H103.091Z" fill="#03101D"/>
</g>
<defs>
<clipPath id="clip0_372_1784">
<rect width="108" height="45" fill="white"/>
</clipPath>
</defs>
</svg>
