<?xml version="1.0" encoding="UTF-8"?>
<svg id="Capa_1" xmlns="http://www.w3.org/2000/svg" version="1.1" viewBox="0 0 6094.5 1578.7">
  <!-- Generator: Adobe Illustrator 29.0.1, SVG Export Plug-In . SVG Version: 2.1.0 Build 192)  -->
  <defs>
    <style>
      .st0 {
        fill: #132634;
      }

      .st1 {
        fill: #2765ff;
      }
    </style>
  </defs>
  <g>
    <path class="st1" d="M2186.4,614c0,119.4-80.2,184.1-171.3,195-31.9,3.6-56.5,4.6-93.8,4.6h-83.8v229.6h-143.1V414.4h226.9c37.4,0,62,.9,93.8,4.6,93.9,10.9,171.3,75.6,171.3,195ZM2037,614c0-53.8-28.2-80.2-71.1-85.6-12.8-1.8-30.1-1.8-50.1-1.8h-78.4v174.9h78.4c20,0,37.4,0,50.1-1.8,42.8-5.5,71.1-31.9,71.1-85.7Z"/>
    <path class="st1" d="M2701.2,837.2h-340.8c8.2,92.9,48.3,120.3,102.1,120.3s83.8-27.3,92-72.9h141.2c-26.4,112.1-117.5,171.3-236,171.3s-242.4-82.9-242.4-254.2,97.5-256.9,251.5-256.9,235.1,117.5,235.1,246.9-.9,28.2-2.7,45.6ZM2364.1,747h191.3c-8.2-68.3-40.1-103.9-92.9-103.9s-86.6,31.9-98.4,103.9Z"/>
    <path class="st1" d="M3087.6,548.4v115.7c-113-7.3-161.3,38.3-161.3,175.9v203.2h-143.1v-485.7h143.1v92.9l36.4-67.4c24.6-25.5,60.1-38.3,88.4-38.3s25.5,1.8,36.4,3.6Z"/>
    <path class="st1" d="M3293.5,441.8c0,44.6-31,72.9-76.5,72.9s-75.6-28.2-75.6-72.9,30.1-72,75.6-72,76.5,28.2,76.5,72ZM3145.9,1043.1v-485.7h143.1v485.7h-143.1Z"/>
    <path class="st0" d="M3916.7,789.8c0,174.9-106.6,266.1-231.4,266.1s-88.4-10-113-25.5l-31.9-51v242.4h-143.1v-664.2h143.1v72.9l36.4-53.8c27.3-21,75.6-31.9,124.8-31.9,133.9,0,215,102,215,245.1ZM3770,798.9c0-95.7-46.5-155.8-113.9-155.8s-115.7,40.1-115.7,151.3v21.9c0,104.8,56.5,141.2,111.2,141.2s118.5-52.8,118.5-158.5Z"/>
    <path class="st0" d="M4447.9,837.2h-340.8c8.2,92.9,48.3,120.3,102,120.3s83.8-27.3,92-72.9h141.2c-26.4,112.1-117.5,171.3-236,171.3s-242.4-82.9-242.4-254.2,97.5-256.9,251.5-256.9,235.1,117.5,235.1,246.9-.9,28.2-2.7,45.6ZM4110.8,747h191.3c-8.2-68.3-40.1-103.9-92.9-103.9s-86.6,31.9-98.4,103.9Z"/>
    <path class="st0" d="M4701.2,856.3c0,16.4,0,32.8.9,45.6,3.6,48.3,20,59.2,92.9,54.7v91.1c-29.2,4.6-57.4,7.3-88.4,7.3-106.6,0-141.2-34.6-146.7-105.7-1.8-24.6-1.8-46.5-1.8-73.8v-223.2h-73.8v-91.1h73.8v-122.1h143.1v122.1h103v91.1h-103v204.1Z"/>
    <path class="st0" d="M5320.8,837.2h-340.8c8.2,92.9,48.3,120.3,102,120.3s83.8-27.3,92-72.9h141.2c-26.4,112.1-117.5,171.3-236,171.3s-242.4-82.9-242.4-254.2,97.5-256.9,251.5-256.9,235.1,117.5,235.1,246.9-.9,28.2-2.7,45.6ZM4983.6,747h191.3c-8.2-68.3-40.1-103.9-92.9-103.9s-86.6,31.9-98.4,103.9Z"/>
    <path class="st0" d="M5550.4,441.8c0,44.6-31,72.9-76.5,72.9s-75.6-28.2-75.6-72.9,30.1-72,75.6-72,76.5,28.2,76.5,72ZM5402.8,1043.1v-485.7h143.1v485.7h-143.1Z"/>
    <path class="st0" d="M5927.6,972.1l-21.9,51.9c-34.6,21.9-75.6,31.9-120.3,31.9-82,0-155.8-50.1-155.8-142.1s93.8-167.7,265.1-167.7h31v-8.2c0-12.8,0-25.5-1.8-41.9-2.7-29.2-24.6-52.8-67.4-52.8s-69.2,27.3-72.9,75.6h-136.7c2.7-111.2,96.6-174,215-174s195.9,62.9,203.2,149.4c1.8,22.8,2.7,50.1,2.7,78.4v147.6c0,36.4,1.8,69.2,9.1,123h-139.4l-10-71.1ZM5925.7,866.4v-35.5c-88.4-7.3-149.4,14.6-149.4,71.1s26.4,55.6,65.6,55.6,83.8-31,83.8-91.1Z"/>
  </g>
  <path class="st0" d="M544.5,535.6v1015c-280.3,0-507.5-227.2-507.5-507.5s227.2-507.5,507.5-507.5Z"/>
  <path class="st0" d="M679,28.1v1015c280.3,0,507.5-227.2,507.5-507.5S959.3,28.1,679,28.1Z"/>
  <circle class="st1" cx="340.4" cy="233.8" r="204.1"/>
</svg>