<svg width="17" height="18" viewBox="0 0 17 18" fill="none" xmlns="http://www.w3.org/2000/svg">
<path d="M8.10664 2.28674H2.57925C2.16041 2.28674 1.75872 2.45313 1.46255 2.7493C1.16639 3.04546 1 3.44715 1 3.866V14.9208C1 15.3396 1.16639 15.7413 1.46255 16.0375C1.75872 16.3336 2.16041 16.5 2.57925 16.5H13.634C14.0529 16.5 14.4546 16.3336 14.7507 16.0375C15.0469 15.7413 15.2133 15.3396 15.2133 14.9208V9.39338" stroke="#0A9EC2" stroke-width="2" stroke-linecap="round" stroke-linejoin="round"/>
<path d="M13.1406 1.99061C13.4548 1.67648 13.8808 1.5 14.3251 1.5C14.7693 1.5 15.1954 1.67648 15.5095 1.99061C15.8236 2.30474 16.0001 2.7308 16.0001 3.17505C16.0001 3.6193 15.8236 4.04536 15.5095 4.35949L8.10675 11.7622L4.94824 12.5519L5.73787 9.39336L13.1406 1.99061Z" stroke="#0A9EC2" stroke-width="2" stroke-linecap="round" stroke-linejoin="round"/>
</svg>
